<?xml version="1.0" encoding="iso-8859-1"?>
<!-- Generator: Adobe Illustrator 19.0.0, SVG Export Plug-In . SVG Version: 6.00 Build 0)  -->
<svg version="1.1" id="Layer_1" xmlns="http://www.w3.org/2000/svg" xmlns:xlink="http://www.w3.org/1999/xlink" x="0px" y="0px"
	 viewBox="0 0 408.75 408.75" style="enable-background:new 0 0 408.75 408.75;" xml:space="preserve">
<g>
	<path style="fill:#FFBE00;" d="M408.75,204.375c0,112.873-91.502,204.375-204.375,204.375S0,317.248,0,204.375S91.502,0,204.375,0
		S408.75,91.502,408.75,204.375"/>
	<path style="fill:#F4502A;" d="M377.749,204.375c0,95.749-77.621,173.379-173.37,173.379c-9.349,0-18.531-0.741-27.48-2.17
		c-1.501-0.24-2.991-0.5-4.471-0.781c-13.85-2.569-27.13-6.799-39.61-12.468c-60.06-27.241-101.819-87.72-101.819-157.96
		c0-95.751,77.619-173.37,173.38-173.37c70.24,0,130.73,41.769,157.96,101.83c5.58,12.28,9.759,25.339,12.339,38.949
		c0.331,1.69,0.63,3.39,0.901,5.1C377.009,185.835,377.749,195.024,377.749,204.375"/>
	<path style="fill:#C29100;" d="M31.189,212.562c2.314,49.782,25.612,94.076,61.269,124.232l0,0
		C56.805,306.637,33.502,262.346,31.189,212.562 M31.137,211.358c0.016,0.398,0.033,0.803,0.052,1.2
		C31.17,212.16,31.153,211.757,31.137,211.358 M31.106,210.525c0.009,0.267,0.019,0.529,0.03,0.795
		C31.125,211.052,31.116,210.793,31.106,210.525 M31.094,210.145c0.004,0.122,0.008,0.249,0.012,0.371
		C31.102,210.389,31.098,210.273,31.094,210.145 M31.081,209.742c0.003,0.113,0.007,0.226,0.011,0.338
		C31.088,209.97,31.084,209.853,31.081,209.742 M31.068,209.307c0.004,0.129,0.007,0.257,0.011,0.385
		C31.075,209.565,31.072,209.435,31.068,209.307 M31.058,208.928c0.003,0.113,0.006,0.225,0.009,0.338
		C31.064,209.151,31.061,209.043,31.058,208.928 M31.048,208.528c0.002,0.106,0.005,0.207,0.008,0.314
		C31.053,208.739,31.051,208.63,31.048,208.528 M31.038,208.08c0.003,0.126,0.005,0.252,0.008,0.378
		C31.044,208.335,31.041,208.204,31.038,208.08 M31.03,207.692c0.002,0.113,0.004,0.227,0.007,0.34
		C31.035,207.921,31.032,207.803,31.03,207.692 M31.024,207.305c0.002,0.103,0.004,0.21,0.005,0.313
		C31.027,207.511,31.025,207.412,31.024,207.305 M31.017,206.848c0.002,0.126,0.004,0.249,0.006,0.375
		C31.02,207.1,31.018,206.972,31.017,206.848 M31.012,206.471c0.001,0.11,0.003,0.223,0.004,0.332
		C31.014,206.693,31.013,206.583,31.012,206.471 M31.008,206.077c0.001,0.1,0.002,0.193,0.003,0.293
		C31.01,206.276,31.008,206.171,31.008,206.077 M31.004,205.615c0.001,0.123,0.002,0.253,0.003,0.376
		C31.005,205.862,31.005,205.743,31.004,205.615 M31.001,205.235c0,0.117,0.001,0.228,0.002,0.344
		C31.003,205.463,31.002,205.351,31.001,205.235 M31,204.85c0,0.097,0.001,0.191,0.001,0.288C31.001,205.044,31,204.944,31,204.85
		 M30.999,204.375c0,0.126,0,0.248,0,0.375C31,204.625,30.999,204.499,30.999,204.375 M257.59,39.323l0.006,0.002L257.59,39.323
		 M257.296,39.229c0.008,0.002,0.017,0.005,0.025,0.008C257.312,39.234,257.305,39.232,257.296,39.229 M256.458,38.963
		c0.008,0.002,0.022,0.007,0.03,0.009C256.476,38.968,256.47,38.967,256.458,38.963 M256.151,38.866
		c0.019,0.006,0.041,0.013,0.061,0.019C256.191,38.879,256.171,38.873,256.151,38.866 M255.895,38.787
		c0.004,0.001,0.003,0.001,0.007,0.002C255.9,38.788,255.898,38.788,255.895,38.787 M255.315,38.608
		c0.031,0.01,0.068,0.021,0.099,0.031C255.382,38.628,255.347,38.618,255.315,38.608 M254.987,38.507
		c0.043,0.013,0.086,0.026,0.129,0.039C255.072,38.533,255.031,38.521,254.987,38.507 M254.669,38.411
		c0.043,0.013,0.081,0.024,0.124,0.037C254.751,38.436,254.71,38.423,254.669,38.411 M254.183,38.264
		c0.043,0.013,0.084,0.025,0.127,0.038C254.269,38.29,254.224,38.277,254.183,38.264 M253.855,38.167
		c0.047,0.014,0.089,0.027,0.136,0.041C253.947,38.194,253.9,38.18,253.855,38.167 M253.514,38.066
		c0.051,0.015,0.101,0.03,0.152,0.045C253.616,38.096,253.564,38.08,253.514,38.066 M253.042,37.927
		c0.063,0.018,0.127,0.037,0.19,0.055C253.169,37.964,253.104,37.945,253.042,37.927 M252.711,37.831
		c0.055,0.016,0.11,0.032,0.164,0.048C252.823,37.863,252.765,37.847,252.711,37.831 M252.369,37.732
		c0.055,0.016,0.116,0.033,0.171,0.049C252.481,37.765,252.429,37.749,252.369,37.732 M251.904,37.599
		c0.071,0.02,0.141,0.04,0.212,0.06C252.045,37.639,251.975,37.62,251.904,37.599 M251.568,37.504
		c0.059,0.017,0.127,0.036,0.186,0.053C251.691,37.539,251.63,37.522,251.568,37.504 M251.219,37.406
		c0.063,0.018,0.127,0.036,0.19,0.053C251.344,37.441,251.285,37.424,251.219,37.406 M250.758,37.278
		c0.102,0.028,0.2,0.056,0.303,0.084C250.962,37.334,250.856,37.305,250.758,37.278 M250.416,37.183
		c0.075,0.021,0.149,0.041,0.224,0.062C250.566,37.225,250.491,37.204,250.416,37.183 M250.06,37.086
		c0.075,0.02,0.148,0.04,0.223,0.061C250.211,37.127,250.131,37.105,250.06,37.086 M249.621,36.967
		c0.107,0.029,0.212,0.057,0.318,0.086C249.835,37.025,249.726,36.995,249.621,36.967 M249.282,36.876
		c0.071,0.019,0.141,0.038,0.212,0.057C249.425,36.914,249.351,36.894,249.282,36.876 M248.914,36.778
		c0.075,0.02,0.15,0.04,0.225,0.06C249.064,36.818,248.989,36.798,248.914,36.778 M248.475,36.662
		c0.111,0.029,0.215,0.056,0.325,0.086C248.693,36.72,248.583,36.691,248.475,36.662 M248.134,36.573
		c0.075,0.02,0.151,0.039,0.227,0.059C248.286,36.613,248.209,36.593,248.134,36.573 M247.774,36.48
		c0.075,0.019,0.149,0.038,0.224,0.058C247.923,36.519,247.849,36.499,247.774,36.48 M247.324,36.365
		c0.107,0.027,0.224,0.057,0.331,0.085C247.544,36.421,247.435,36.393,247.324,36.365 M246.977,36.277
		c0.091,0.023,0.175,0.044,0.266,0.067C247.153,36.321,247.067,36.299,246.977,36.277 M246.609,36.184
		c0.084,0.021,0.17,0.043,0.254,0.064C246.778,36.227,246.693,36.205,246.609,36.184 M246.172,36.075
		c0.115,0.029,0.228,0.056,0.343,0.085C246.401,36.132,246.287,36.104,246.172,36.075 M245.816,35.988
		c0.1,0.024,0.199,0.049,0.299,0.074C246.015,36.037,245.915,36.012,245.816,35.988 M245.456,35.9
		c0.092,0.022,0.18,0.044,0.272,0.066C245.638,35.944,245.547,35.922,245.456,35.9 M245.016,35.793
		c0.12,0.029,0.23,0.055,0.349,0.084C245.247,35.849,245.133,35.822,245.016,35.793 M244.672,35.711
		c0.104,0.025,0.215,0.051,0.319,0.076C244.885,35.762,244.777,35.736,244.672,35.711 M244.299,35.623
		c0.088,0.021,0.18,0.042,0.268,0.063C244.476,35.665,244.39,35.644,244.299,35.623 M243.506,35.438
		c0.236,0.055,0.476,0.11,0.712,0.166C243.981,35.548,243.742,35.492,243.506,35.438 M243.139,35.354
		c0.096,0.022,0.193,0.044,0.289,0.066C243.332,35.398,243.236,35.376,243.139,35.354 M242.351,35.176
		c0.237,0.053,0.476,0.107,0.712,0.161C242.827,35.283,242.588,35.229,242.351,35.176 M241.981,35.094
		c0.097,0.021,0.189,0.042,0.286,0.063C242.17,35.135,242.079,35.115,241.981,35.094 M241.187,34.92
		c0.242,0.052,0.477,0.104,0.719,0.157C241.665,35.024,241.427,34.972,241.187,34.92 M240.829,34.843
		c0.093,0.02,0.192,0.041,0.285,0.061C241.02,34.884,240.924,34.863,240.829,34.843 M240.022,34.672
		c0.238,0.05,0.476,0.1,0.714,0.151C240.499,34.772,240.26,34.722,240.022,34.672 M239.646,34.594
		c0.101,0.021,0.21,0.043,0.311,0.064C239.853,34.637,239.75,34.616,239.646,34.594 M238.844,34.43
		c0.247,0.05,0.498,0.101,0.745,0.152C239.341,34.531,239.091,34.48,238.844,34.43 M238.48,34.357
		c0.113,0.023,0.226,0.045,0.339,0.068C238.706,34.403,238.593,34.38,238.48,34.357 M237.671,34.198
		c0.251,0.049,0.497,0.097,0.748,0.147C238.172,34.296,237.92,34.246,237.671,34.198 M237.302,34.127
		c0.122,0.023,0.242,0.047,0.364,0.07C237.543,34.173,237.425,34.15,237.302,34.127 M236.124,33.904
		c0.378,0.07,0.759,0.142,1.136,0.214C236.883,34.046,236.502,33.974,236.124,33.904 M234.953,33.692
		c0.383,0.068,0.759,0.136,1.141,0.207C235.716,33.829,235.332,33.759,234.953,33.692 M233.787,33.489
		c0.376,0.064,0.754,0.13,1.129,0.197C234.54,33.619,234.164,33.553,233.787,33.489 M233.385,33.42
		c0.115,0.019,0.227,0.038,0.341,0.058C233.615,33.459,233.496,33.439,233.385,33.42 M232.599,33.29
		c0.254,0.042,0.508,0.084,0.761,0.126C233.106,33.374,232.853,33.331,232.599,33.29 M232.205,33.226
		c0.119,0.019,0.233,0.038,0.352,0.057C232.439,33.264,232.323,33.245,232.205,33.226 M231.414,33.1
		c0.255,0.04,0.511,0.081,0.765,0.122C231.926,33.181,231.669,33.14,231.414,33.1 M231.019,33.039
		c0.119,0.018,0.239,0.037,0.358,0.056C231.256,33.075,231.14,33.057,231.019,33.039 M230.223,32.918
		c0.255,0.038,0.521,0.079,0.776,0.118C230.741,32.996,230.481,32.956,230.223,32.918 M229.838,32.861
		c0.124,0.018,0.242,0.036,0.366,0.054C230.082,32.897,229.959,32.879,229.838,32.861 M229.046,32.746
		c0.256,0.036,0.51,0.073,0.765,0.111C229.555,32.819,229.302,32.783,229.046,32.746 M228.659,32.691
		c0.111,0.016,0.227,0.032,0.339,0.048C228.885,32.723,228.771,32.707,228.659,32.691 M227.848,32.58
		c0.256,0.035,0.513,0.07,0.769,0.106C228.361,32.65,228.104,32.614,227.848,32.58 M227.467,32.529
		c0.12,0.016,0.236,0.032,0.356,0.048C227.704,32.56,227.586,32.545,227.467,32.529 M226.661,32.423
		c0.257,0.033,0.509,0.066,0.765,0.1C227.172,32.49,226.914,32.456,226.661,32.423 M226.284,32.375
		c0.112,0.014,0.222,0.028,0.334,0.042C226.505,32.403,226.397,32.39,226.284,32.375 M225.858,32.322
		c0.124,0.015,0.242,0.03,0.366,0.046C226.102,32.352,225.98,32.337,225.858,32.322 M225.461,32.274
		c0.129,0.016,0.26,0.032,0.389,0.048C225.722,32.305,225.59,32.289,225.461,32.274 M225.094,32.23
		c0.112,0.013,0.227,0.027,0.339,0.041C225.32,32.257,225.207,32.243,225.094,32.23 M224.68,32.181
		c0.112,0.013,0.228,0.027,0.34,0.04C224.908,32.207,224.793,32.194,224.68,32.181 M224.266,32.133
		c0.125,0.014,0.257,0.029,0.382,0.044C224.519,32.162,224.396,32.148,224.266,32.133 M223.895,32.091
		c0.112,0.013,0.22,0.025,0.332,0.037C224.117,32.116,224.005,32.103,223.895,32.091 M223.479,32.045
		c0.113,0.012,0.231,0.025,0.343,0.038C223.709,32.07,223.593,32.057,223.479,32.045 M223.065,32
		c0.125,0.013,0.26,0.028,0.385,0.042C223.321,32.028,223.195,32.014,223.065,32 M222.697,31.961
		c0.113,0.012,0.222,0.023,0.334,0.035C222.921,31.985,222.808,31.973,222.697,31.961 M222.294,31.919
		c0.109,0.011,0.211,0.022,0.319,0.033C222.506,31.941,222.401,31.93,222.294,31.919 M221.862,31.875
		c0.13,0.013,0.251,0.025,0.38,0.039C222.116,31.901,221.988,31.888,221.862,31.875 M221.492,31.839
		c0.113,0.011,0.229,0.023,0.342,0.034C221.72,31.861,221.605,31.85,221.492,31.839 M221.091,31.8
		c0.105,0.01,0.215,0.021,0.32,0.031C221.303,31.82,221.198,31.81,221.091,31.8 M220.278,31.724
		c0.255,0.023,0.504,0.046,0.759,0.071C220.785,31.771,220.531,31.747,220.278,31.724 M219.883,31.689
		c0.109,0.01,0.221,0.02,0.33,0.03C220.102,31.708,219.994,31.698,219.883,31.689 M219.076,31.619
		c0.252,0.021,0.502,0.043,0.754,0.065C219.576,31.662,219.33,31.64,219.076,31.619 M218.685,31.587
		c0.101,0.008,0.21,0.017,0.311,0.026C218.891,31.604,218.79,31.595,218.685,31.587 M217.862,31.521
		c0.252,0.019,0.501,0.039,0.753,0.06C218.364,31.561,218.113,31.541,217.862,31.521 M217.462,31.491
		c0.105,0.008,0.221,0.017,0.326,0.025C217.68,31.507,217.57,31.499,217.462,31.491 M216.651,31.432
		c0.253,0.018,0.506,0.036,0.759,0.055C217.155,31.468,216.906,31.45,216.651,31.432 M216.27,31.406
		c0.101,0.007,0.196,0.013,0.297,0.02C216.468,31.42,216.368,31.413,216.27,31.406 M215.439,31.352
		c0.245,0.015,0.498,0.032,0.743,0.048C215.933,31.384,215.688,31.368,215.439,31.352 M215.061,31.329
		c0.093,0.006,0.188,0.012,0.281,0.017C215.249,31.34,215.154,31.334,215.061,31.329 M214.627,31.303
		c0.106,0.006,0.224,0.013,0.329,0.02C214.848,31.316,214.736,31.309,214.627,31.303 M214.218,31.279
		c0.123,0.007,0.249,0.014,0.371,0.021C214.464,31.293,214.342,31.286,214.218,31.279 M213.845,31.259
		c0.093,0.005,0.193,0.01,0.286,0.016C214.035,31.269,213.941,31.264,213.845,31.259 M213.409,31.236
		c0.11,0.006,0.214,0.011,0.324,0.017C213.627,31.247,213.514,31.241,213.409,31.236 M212.996,31.215
		c0.123,0.006,0.252,0.012,0.374,0.019C213.245,31.228,213.121,31.221,212.996,31.215 M212.615,31.197
		c0.098,0.005,0.2,0.009,0.297,0.014C212.812,31.206,212.714,31.202,212.615,31.197 M212.209,31.178
		c0.102,0.005,0.209,0.009,0.31,0.014C212.417,31.188,212.311,31.183,212.209,31.178 M211.775,31.16
		c0.123,0.005,0.244,0.01,0.367,0.016C212.02,31.17,211.897,31.165,211.775,31.16 M211.395,31.144
		c0.098,0.004,0.193,0.008,0.291,0.012C211.589,31.152,211.491,31.148,211.395,31.144 M210.967,31.128
		c0.106,0.004,0.219,0.008,0.325,0.012C211.186,31.136,211.073,31.132,210.967,31.128 M210.549,31.113
		c0.123,0.004,0.252,0.009,0.375,0.014C210.799,31.121,210.674,31.117,210.549,31.113 M210.178,31.1
		c0.089,0.003,0.188,0.006,0.277,0.009C210.365,31.106,210.268,31.103,210.178,31.1 M209.786,31.088
		c0.089,0.003,0.18,0.006,0.269,0.008C209.964,31.093,209.876,31.09,209.786,31.088 M209.319,31.074
		c0.124,0.003,0.24,0.007,0.363,0.011C209.563,31.081,209.438,31.077,209.319,31.074 M208.943,31.064
		c0.098,0.003,0.2,0.005,0.298,0.008C209.141,31.069,209.043,31.066,208.943,31.064 M208.547,31.054
		c0.094,0.002,0.19,0.005,0.284,0.007C208.738,31.059,208.641,31.056,208.547,31.054 M208.092,31.044
		c0.124,0.003,0.241,0.005,0.365,0.008C208.334,31.049,208.214,31.046,208.092,31.044 M207.708,31.036
		c0.102,0.002,0.197,0.004,0.3,0.006C207.907,31.04,207.808,31.038,207.708,31.036 M207.326,31.029
		c0.09,0.001,0.19,0.003,0.28,0.005C207.512,31.033,207.42,31.031,207.326,31.029 M206.856,31.022
		c0.12,0.002,0.246,0.004,0.365,0.006C207.098,31.026,206.979,31.024,206.856,31.022 M206.475,31.017
		c0.107,0.001,0.212,0.003,0.319,0.004C206.688,31.02,206.582,31.019,206.475,31.017 M206.081,31.013
		c0.094,0.001,0.199,0.002,0.293,0.003C206.274,31.015,206.181,31.014,206.081,31.013 M205.618,31.009
		c0.128,0.001,0.247,0.002,0.376,0.003C205.871,31.011,205.741,31.01,205.618,31.009 M205.239,31.007
		c0.116,0.001,0.228,0.001,0.344,0.002C205.466,31.008,205.355,31.007,205.239,31.007 M204.854,31.006
		c0.094,0,0.194,0.001,0.288,0.001C205.045,31.006,204.951,31.006,204.854,31.006 M204.379,31.005
		c-95.76,0-173.38,77.619-173.38,173.37l0,0C30.999,108.624,108.618,31.005,204.379,31.005c0.124,0,0.25,0,0.375,0
		C204.627,31.005,204.505,31.005,204.379,31.005"/>
	<path style="fill:#BA3D20;" d="M204.379,31.005c-95.76,0-173.38,77.619-173.38,173.37l0,0c0,0.124,0,0.25,0,0.375
		c0,0.032,0,0.068,0,0.1c0,0.094,0.001,0.194,0.001,0.288c0,0.029,0,0.068,0,0.097c0,0.116,0.001,0.228,0.002,0.344
		c0,0.013,0,0.023,0,0.036c0.001,0.128,0.002,0.247,0.003,0.376c0,0.029,0,0.058,0.001,0.087c0.001,0.094,0.002,0.199,0.003,0.293
		c0,0.032,0.001,0.069,0.001,0.101c0.001,0.111,0.003,0.221,0.004,0.332c0,0.016,0,0.029,0.001,0.045
		c0.002,0.124,0.004,0.251,0.006,0.375c0,0.026,0.001,0.056,0.001,0.082c0.002,0.107,0.004,0.206,0.005,0.313
		c0,0.026,0.001,0.048,0.001,0.074c0.002,0.111,0.004,0.229,0.007,0.34c0,0.016,0.001,0.032,0.001,0.048
		c0.003,0.124,0.005,0.254,0.008,0.378c0.001,0.023,0.001,0.047,0.002,0.069c0.002,0.102,0.005,0.211,0.008,0.314
		c0.001,0.029,0.001,0.057,0.002,0.086c0.003,0.115,0.006,0.223,0.009,0.338c0,0.013,0.001,0.028,0.001,0.041
		c0.004,0.128,0.007,0.258,0.011,0.385c0,0.016,0.001,0.034,0.002,0.05c0.003,0.111,0.007,0.227,0.011,0.338
		c0.001,0.023,0.001,0.042,0.002,0.065c0.004,0.128,0.008,0.244,0.012,0.371c0,0.003,0,0.005,0,0.008
		c0.009,0.268,0.019,0.528,0.03,0.795c0,0.013,0.001,0.025,0.001,0.038c0.016,0.399,0.033,0.802,0.052,1.2c0,0.003,0,0.001,0,0.004
		c2.313,49.784,25.615,94.075,61.269,124.232c-25.529-30.199-40.919-69.24-40.919-111.879c0-95.751,77.619-173.37,173.38-173.37
		c42.629,0,81.68,15.39,111.87,40.919c-20.677-24.448-48.002-43.091-79.193-53.139l-0.006-0.002
		c-0.091-0.029-0.179-0.057-0.269-0.087c-0.008-0.002-0.017-0.005-0.025-0.008c-0.267-0.085-0.541-0.172-0.808-0.257
		c-0.008-0.002-0.022-0.007-0.03-0.009c-0.082-0.026-0.165-0.052-0.247-0.077c-0.019-0.006-0.041-0.013-0.061-0.019
		c-0.082-0.026-0.166-0.052-0.248-0.077c-0.004-0.001-0.003-0.001-0.007-0.002c-0.159-0.049-0.322-0.1-0.481-0.149
		c-0.031-0.01-0.068-0.021-0.099-0.031c-0.068-0.021-0.131-0.04-0.199-0.061c-0.043-0.013-0.086-0.026-0.129-0.039
		c-0.065-0.02-0.129-0.039-0.194-0.059c-0.043-0.013-0.081-0.024-0.124-0.037c-0.118-0.036-0.241-0.073-0.359-0.108
		c-0.043-0.013-0.084-0.025-0.127-0.038c-0.065-0.019-0.126-0.038-0.191-0.057c-0.047-0.014-0.089-0.027-0.136-0.041
		c-0.065-0.019-0.124-0.037-0.189-0.056c-0.051-0.015-0.102-0.03-0.152-0.045c-0.095-0.028-0.188-0.055-0.282-0.083
		c-0.063-0.018-0.127-0.037-0.19-0.055c-0.056-0.016-0.109-0.032-0.166-0.048c-0.055-0.016-0.109-0.032-0.164-0.048
		c-0.056-0.016-0.115-0.033-0.171-0.049c-0.055-0.016-0.116-0.033-0.171-0.049c-0.083-0.024-0.17-0.049-0.254-0.073
		c-0.071-0.02-0.141-0.04-0.212-0.06c-0.051-0.014-0.1-0.028-0.15-0.043c-0.059-0.017-0.127-0.036-0.186-0.053
		c-0.051-0.014-0.108-0.03-0.158-0.045c-0.063-0.018-0.128-0.036-0.19-0.053c-0.054-0.015-0.105-0.029-0.159-0.044
		c-0.102-0.029-0.2-0.056-0.303-0.084c-0.042-0.012-0.076-0.021-0.117-0.032c-0.075-0.021-0.149-0.041-0.224-0.062
		c-0.045-0.012-0.089-0.024-0.134-0.037c-0.075-0.021-0.148-0.04-0.223-0.061c-0.042-0.011-0.078-0.021-0.12-0.033
		c-0.107-0.029-0.212-0.057-0.318-0.086c-0.045-0.012-0.083-0.022-0.128-0.034c-0.071-0.019-0.141-0.038-0.212-0.057
		c-0.048-0.013-0.095-0.025-0.143-0.038c-0.075-0.02-0.15-0.04-0.225-0.06c-0.039-0.01-0.075-0.02-0.114-0.03
		c-0.111-0.029-0.214-0.057-0.325-0.086c-0.039-0.01-0.075-0.02-0.114-0.03c-0.075-0.02-0.151-0.039-0.227-0.059
		c-0.045-0.012-0.091-0.024-0.136-0.035c-0.075-0.02-0.149-0.039-0.224-0.058c-0.039-0.01-0.079-0.02-0.118-0.03
		c-0.107-0.028-0.224-0.057-0.331-0.085c-0.027-0.007-0.054-0.014-0.081-0.021c-0.091-0.023-0.175-0.044-0.266-0.067
		c-0.036-0.009-0.078-0.02-0.114-0.029c-0.083-0.021-0.17-0.043-0.254-0.064c-0.033-0.008-0.061-0.015-0.094-0.023
		c-0.115-0.029-0.227-0.057-0.343-0.085c-0.018-0.004-0.04-0.01-0.058-0.014c-0.1-0.025-0.199-0.049-0.299-0.074
		c-0.03-0.007-0.058-0.014-0.088-0.022c-0.092-0.022-0.18-0.044-0.272-0.066c-0.03-0.007-0.061-0.015-0.091-0.022
		c-0.12-0.029-0.229-0.056-0.349-0.084c-0.009-0.002-0.016-0.004-0.025-0.006c-0.104-0.025-0.215-0.051-0.319-0.076
		c-0.033-0.008-0.072-0.017-0.105-0.025c-0.088-0.021-0.18-0.043-0.268-0.063c-0.027-0.006-0.054-0.013-0.082-0.019
		c-0.236-0.055-0.475-0.111-0.712-0.166c-0.027-0.006-0.05-0.011-0.077-0.018c-0.096-0.022-0.193-0.044-0.289-0.066
		c-0.024-0.006-0.052-0.012-0.076-0.017c-0.237-0.054-0.475-0.108-0.712-0.161c-0.027-0.006-0.057-0.013-0.084-0.019
		c-0.096-0.021-0.189-0.042-0.286-0.063c-0.024-0.005-0.052-0.011-0.076-0.017c-0.241-0.053-0.477-0.105-0.719-0.157
		c-0.024-0.005-0.048-0.01-0.072-0.016c-0.093-0.02-0.192-0.041-0.285-0.061c-0.03-0.007-0.063-0.013-0.093-0.02
		c-0.238-0.051-0.476-0.101-0.714-0.151c-0.021-0.004-0.044-0.009-0.065-0.014c-0.101-0.021-0.21-0.044-0.311-0.064
		c-0.021-0.004-0.037-0.008-0.058-0.012c-0.246-0.051-0.498-0.102-0.745-0.152c-0.006-0.001-0.018-0.004-0.024-0.005
		c-0.113-0.023-0.226-0.045-0.339-0.068c-0.021-0.004-0.039-0.008-0.06-0.012c-0.251-0.05-0.497-0.098-0.748-0.147
		c-0.003-0.001-0.003-0.001-0.006-0.001c-0.122-0.024-0.242-0.047-0.364-0.07c-0.012-0.002-0.029-0.006-0.042-0.008
		c-0.378-0.072-0.758-0.144-1.136-0.214c-0.012-0.002-0.017-0.003-0.03-0.005c-0.382-0.071-0.758-0.139-1.141-0.207
		c-0.012-0.002-0.024-0.004-0.036-0.006c-0.375-0.067-0.753-0.133-1.129-0.197c-0.022-0.004-0.04-0.007-0.061-0.01
		c-0.115-0.02-0.226-0.039-0.341-0.058c-0.009-0.002-0.016-0.003-0.025-0.004c-0.254-0.043-0.507-0.085-0.761-0.126
		c-0.012-0.002-0.029-0.005-0.042-0.007c-0.119-0.019-0.233-0.038-0.352-0.057c-0.009-0.002-0.016-0.003-0.025-0.004
		c-0.254-0.041-0.511-0.082-0.765-0.122c-0.012-0.002-0.025-0.004-0.037-0.006c-0.119-0.019-0.239-0.037-0.358-0.056
		c-0.006-0.001-0.014-0.002-0.02-0.003c-0.255-0.039-0.521-0.08-0.776-0.118c-0.006-0.001-0.013-0.002-0.019-0.003
		c-0.123-0.018-0.242-0.036-0.366-0.054c-0.009-0.001-0.018-0.003-0.027-0.004c-0.255-0.038-0.509-0.074-0.765-0.111
		c-0.016-0.002-0.032-0.005-0.048-0.007c-0.111-0.016-0.227-0.032-0.339-0.048c-0.016-0.002-0.026-0.004-0.042-0.006
		c-0.256-0.036-0.513-0.071-0.769-0.106c-0.009-0.001-0.016-0.002-0.025-0.003c-0.12-0.016-0.236-0.032-0.356-0.048
		c-0.013-0.002-0.029-0.004-0.041-0.006c-0.256-0.034-0.508-0.067-0.765-0.1c-0.016-0.002-0.027-0.003-0.043-0.005
		c-0.112-0.014-0.222-0.028-0.334-0.042c-0.019-0.002-0.041-0.005-0.06-0.008c-0.124-0.016-0.242-0.03-0.366-0.046
		c-0.003,0-0.004,0-0.007-0.001c-0.129-0.016-0.26-0.032-0.389-0.048c-0.009-0.001-0.019-0.002-0.028-0.003
		c-0.112-0.014-0.227-0.027-0.339-0.041c-0.025-0.003-0.048-0.006-0.073-0.009c-0.112-0.013-0.228-0.027-0.34-0.04
		c-0.01-0.001-0.023-0.003-0.032-0.004c-0.125-0.015-0.257-0.03-0.382-0.044c-0.013-0.001-0.027-0.003-0.039-0.004
		c-0.112-0.013-0.22-0.025-0.332-0.037c-0.025-0.003-0.048-0.005-0.073-0.008c-0.112-0.013-0.23-0.026-0.343-0.038
		c-0.009-0.001-0.02-0.002-0.029-0.003c-0.125-0.014-0.26-0.028-0.385-0.042c-0.013-0.001-0.021-0.002-0.034-0.004
		c-0.113-0.012-0.222-0.024-0.334-0.035c-0.028-0.003-0.056-0.006-0.084-0.009c-0.109-0.011-0.211-0.022-0.319-0.033
		c-0.016-0.002-0.036-0.004-0.052-0.005c-0.129-0.013-0.251-0.026-0.38-0.039c-0.009-0.001-0.019-0.002-0.029-0.003
		c-0.113-0.011-0.229-0.023-0.342-0.034c-0.028-0.003-0.052-0.005-0.081-0.008c-0.104-0.01-0.215-0.021-0.32-0.031
		c-0.016-0.002-0.037-0.004-0.053-0.005c-0.255-0.024-0.504-0.047-0.759-0.071c-0.022-0.002-0.043-0.004-0.066-0.006
		c-0.109-0.01-0.221-0.02-0.33-0.03c-0.016-0.001-0.037-0.003-0.053-0.005c-0.251-0.022-0.502-0.044-0.754-0.065
		c-0.025-0.002-0.055-0.005-0.08-0.007c-0.101-0.008-0.21-0.017-0.311-0.026c-0.022-0.002-0.048-0.004-0.07-0.006
		c-0.252-0.02-0.501-0.04-0.753-0.06c-0.025-0.002-0.048-0.004-0.074-0.006c-0.105-0.008-0.221-0.017-0.326-0.025
		c-0.016-0.001-0.036-0.003-0.052-0.004c-0.252-0.019-0.506-0.037-0.759-0.055c-0.029-0.002-0.056-0.004-0.084-0.006
		c-0.101-0.007-0.196-0.014-0.297-0.02c-0.029-0.002-0.059-0.004-0.088-0.006c-0.245-0.016-0.498-0.033-0.743-0.048
		c-0.032-0.002-0.066-0.004-0.098-0.006c-0.093-0.006-0.188-0.012-0.281-0.017c-0.035-0.002-0.07-0.004-0.105-0.006
		c-0.106-0.006-0.224-0.013-0.329-0.02c-0.013-0.001-0.026-0.002-0.038-0.002c-0.122-0.007-0.249-0.014-0.371-0.021
		c-0.029-0.002-0.058-0.003-0.087-0.005c-0.093-0.005-0.193-0.011-0.286-0.016c-0.038-0.002-0.074-0.004-0.112-0.006
		c-0.11-0.006-0.214-0.011-0.324-0.017c-0.013-0.001-0.026-0.001-0.038-0.002c-0.123-0.006-0.252-0.013-0.374-0.019
		c-0.029-0.001-0.056-0.003-0.084-0.004c-0.097-0.005-0.199-0.01-0.297-0.014c-0.032-0.002-0.063-0.003-0.096-0.004
		c-0.102-0.005-0.208-0.01-0.31-0.014c-0.022-0.001-0.045-0.002-0.067-0.003c-0.123-0.005-0.244-0.011-0.367-0.016
		c-0.032-0.001-0.057-0.002-0.089-0.004c-0.098-0.004-0.193-0.008-0.291-0.012c-0.035-0.001-0.068-0.003-0.103-0.004
		c-0.106-0.004-0.219-0.008-0.325-0.012c-0.016-0.001-0.027-0.001-0.043-0.002c-0.123-0.005-0.252-0.009-0.375-0.014
		c-0.032-0.001-0.063-0.002-0.095-0.003c-0.089-0.003-0.188-0.006-0.277-0.009c-0.042-0.001-0.081-0.003-0.123-0.004
		c-0.089-0.003-0.18-0.006-0.269-0.008c-0.035-0.001-0.068-0.002-0.103-0.003c-0.123-0.004-0.239-0.007-0.363-0.011
		c-0.026-0.001-0.052-0.001-0.078-0.002c-0.098-0.003-0.2-0.005-0.298-0.008c-0.039-0.001-0.073-0.002-0.112-0.003
		c-0.094-0.002-0.19-0.005-0.284-0.007c-0.029-0.001-0.062-0.001-0.091-0.002c-0.124-0.003-0.241-0.005-0.365-0.008
		c-0.029-0.001-0.056-0.001-0.085-0.002c-0.102-0.002-0.197-0.004-0.3-0.006c-0.032-0.001-0.07-0.001-0.102-0.002
		c-0.09-0.002-0.19-0.003-0.28-0.005c-0.036-0.001-0.069-0.001-0.105-0.002c-0.12-0.002-0.245-0.004-0.365-0.006
		c-0.019,0-0.042-0.001-0.062-0.001c-0.107-0.001-0.212-0.003-0.319-0.004c-0.032,0-0.069-0.001-0.101-0.001
		c-0.094-0.001-0.199-0.002-0.293-0.003c-0.029,0-0.058-0.001-0.087-0.001c-0.128-0.001-0.247-0.002-0.376-0.003
		c-0.013,0-0.023,0-0.036,0c-0.116-0.001-0.228-0.001-0.344-0.002c-0.029,0-0.068,0-0.097,0c-0.094,0-0.194-0.001-0.288-0.001
		c-0.032,0-0.068,0-0.1,0C204.629,31.005,204.503,31.005,204.379,31.005"/>
	<path style="fill:#BA3D20;" d="M307.289,104.395L307.289,104.395L108.594,310.97l63.834,63.834
		c1.479,0.281,2.969,0.541,4.471,0.781c8.949,1.429,18.13,2.17,27.48,2.17c95.749,0,173.37-77.63,173.37-173.379
		c0-9.351-0.74-18.54-2.17-27.491c-0.271-1.71-0.571-3.411-0.901-5.1l0,0L307.289,104.395"/>
	<polyline style="fill:#55A9BC;" points="296.834,281.208 120.945,281.208 120.945,151.66 296.834,151.66 296.834,281.208 	"/>
	<path style="fill:#52818C;" d="M296.834,237.443H120.945v14.005h155.809h20.08L296.834,237.443 M296.834,163.914H120.945v14.007
		h155.809h20.08L296.834,163.914"/>
	<polyline style="fill:#1CA4BA;" points="307.286,251.447 108.587,251.447 108.587,310.97 307.286,310.97 307.286,251.447 	"/>
	<polyline style="fill:#317E8B;" points="307.286,251.447 296.834,251.447 276.754,251.447 276.754,310.97 307.286,310.97 
		307.286,251.447 	"/>
	<circle style="fill:#FFFFFF;" cx="149.831" cy="281.208" r="11.379"/>
	<circle style="fill:#FFBE00;" cx="180.467" cy="281.208" r="11.379"/>
	<polyline style="fill:#1CA4BA;" points="307.286,177.92 108.587,177.92 108.587,237.443 307.286,237.443 307.286,177.92 	"/>
	<polyline style="fill:#317E8B;" points="307.286,177.92 296.834,177.92 276.754,177.92 276.754,237.443 307.286,237.443 
		307.286,177.92 	"/>
	<circle style="fill:#FFFFFF;" cx="149.831" cy="207.681" r="11.379"/>
	<circle style="fill:#FFBE00;" cx="180.467" cy="207.681" r="11.379"/>
	<polyline style="fill:#1CA4BA;" points="307.286,104.393 108.587,104.393 108.587,163.914 307.286,163.914 307.286,104.393 	"/>
	<polyline style="fill:#8B4433;" points="307.289,104.395 307.289,104.395 307.286,163.914 307.286,104.399 	"/>
	<polyline style="fill:#317E8B;" points="307.286,104.393 276.754,104.393 276.754,163.914 307.286,163.914 307.286,104.399 
		307.286,104.393 	"/>
	<circle style="fill:#FFFFFF;" cx="149.831" cy="134.154" r="11.379"/>
	<circle style="fill:#FFBE00;" cx="180.467" cy="134.154" r="11.379"/>
</g>
<g>
</g>
<g>
</g>
<g>
</g>
<g>
</g>
<g>
</g>
<g>
</g>
<g>
</g>
<g>
</g>
<g>
</g>
<g>
</g>
<g>
</g>
<g>
</g>
<g>
</g>
<g>
</g>
<g>
</g>
</svg>
