<?xml version="1.0" encoding="iso-8859-1"?>
<!-- Generator: Adobe Illustrator 19.0.0, SVG Export Plug-In . SVG Version: 6.00 Build 0)  -->
<svg version="1.1" id="Layer_1" xmlns="http://www.w3.org/2000/svg" xmlns:xlink="http://www.w3.org/1999/xlink" x="0px" y="0px"
	 viewBox="0 0 505 505" style="enable-background:new 0 0 505 505;" xml:space="preserve">
<circle style="fill:#4CDBC4;" cx="252.5" cy="252.5" r="252.5"/>
<polygon style="fill:#2B3B4E;" points="298.9,367.1 206.1,367.1 192,418.6 313,418.6 "/>
<g>
	<path style="fill:#324A5E;" d="M335.1,409.4H169.9c-1.4,0-2.5,1.1-2.5,2.5v17.5c0,1.4,1.1,2.5,2.5,2.5h165.2c1.4,0,2.5-1.1,2.5-2.5
		v-17.5C337.6,410.5,336.5,409.4,335.1,409.4z"/>
	<path style="fill:#324A5E;" d="M418.6,375.7H86.4c-1.9,0-3.4-1.5-3.4-3.4V110.5c0-1.9,1.5-3.4,3.4-3.4h332.2c1.9,0,3.4,1.5,3.4,3.4
		v261.7C422.1,374.2,420.5,375.7,418.6,375.7z"/>
</g>
<rect x="110.2" y="134.4" style="fill:#FFFFFF;" width="284.5" height="199.8"/>
<circle style="fill:#E6E9EE;" cx="252.5" cy="354.3" r="8.7"/>
<g>
	<rect x="341" y="236.6" style="fill:#FF7058;" width="22.9" height="72.4"/>
	<rect x="298.9" y="257.7" style="fill:#FF7058;" width="22.9" height="51.3"/>
	<rect x="256.8" y="273.6" style="fill:#FF7058;" width="22.9" height="35.4"/>
	<rect x="214.7" y="285.6" style="fill:#FF7058;" width="22.9" height="23.4"/>
</g>
<g>
	<path style="fill:#E6E9EE;" d="M218.5,225.9c44.2,14.7,92.5,3.7,125.9-29.3c3.8,3.6,7.6,7.1,11.4,10.7c5.1-19,6.2-38.1,3.7-55.9
		c-13.1,11.2-27.5,17.7-41.4,20.5c3.8,3.6,7.6,7.1,11.4,10.7C305.8,215,264.2,233.9,218.5,225.9z"/>
	<rect x="131.5" y="154.8" style="fill:#E6E9EE;" width="78.5" height="13.5"/>
	<rect x="131.5" y="183.3" style="fill:#E6E9EE;" width="59.1" height="13.5"/>
</g>
<g>
</g>
<g>
</g>
<g>
</g>
<g>
</g>
<g>
</g>
<g>
</g>
<g>
</g>
<g>
</g>
<g>
</g>
<g>
</g>
<g>
</g>
<g>
</g>
<g>
</g>
<g>
</g>
<g>
</g>
</svg>
